<mxfile host="app.diagrams.net" modified="2023-08-03T06:48:13.569Z" agent="Mozilla/5.0 (Windows NT 10.0; Win64; x64) AppleWebKit/537.36 (KHTML, like Gecko) Chrome/114.0.0.0 Safari/537.36" etag="2BT8wGLl8MA0Twhqm_is" version="21.6.6" type="device">
  <diagram name="Page-1" id="6IzOGxR9PSqKDzpqtdA6">
    <mxGraphModel dx="1914" dy="2138" grid="1" gridSize="10" guides="1" tooltips="1" connect="1" arrows="1" fold="1" page="1" pageScale="1" pageWidth="850" pageHeight="1100" math="0" shadow="0">
      <root>
        <mxCell id="0" />
        <mxCell id="1" parent="0" />
        <mxCell id="spTVyyW4fHagzauWtHll-5" value="" style="edgeStyle=orthogonalEdgeStyle;rounded=0;orthogonalLoop=1;jettySize=auto;html=1;" parent="1" source="spTVyyW4fHagzauWtHll-1" target="spTVyyW4fHagzauWtHll-4" edge="1">
          <mxGeometry relative="1" as="geometry" />
        </mxCell>
        <mxCell id="spTVyyW4fHagzauWtHll-1" value="Start" style="ellipse;whiteSpace=wrap;html=1;fillColor=#f8cecc;strokeColor=#b85450;" parent="1" vertex="1">
          <mxGeometry x="50" y="-1080" width="120" height="80" as="geometry" />
        </mxCell>
        <mxCell id="spTVyyW4fHagzauWtHll-40" value="" style="edgeStyle=orthogonalEdgeStyle;rounded=0;orthogonalLoop=1;jettySize=auto;html=1;" parent="1" source="spTVyyW4fHagzauWtHll-4" target="spTVyyW4fHagzauWtHll-39" edge="1">
          <mxGeometry relative="1" as="geometry" />
        </mxCell>
        <mxCell id="spTVyyW4fHagzauWtHll-4" value="Add name" style="rounded=1;whiteSpace=wrap;html=1;fillColor=#dae8fc;strokeColor=#6c8ebf;" parent="1" vertex="1">
          <mxGeometry x="50" y="-950" width="120" height="60" as="geometry" />
        </mxCell>
        <mxCell id="spTVyyW4fHagzauWtHll-9" value="" style="edgeStyle=orthogonalEdgeStyle;rounded=0;orthogonalLoop=1;jettySize=auto;html=1;" parent="1" source="spTVyyW4fHagzauWtHll-6" target="spTVyyW4fHagzauWtHll-8" edge="1">
          <mxGeometry relative="1" as="geometry" />
        </mxCell>
        <mxCell id="spTVyyW4fHagzauWtHll-11" value="" style="edgeStyle=orthogonalEdgeStyle;rounded=0;orthogonalLoop=1;jettySize=auto;html=1;" parent="1" source="spTVyyW4fHagzauWtHll-6" target="spTVyyW4fHagzauWtHll-10" edge="1">
          <mxGeometry relative="1" as="geometry" />
        </mxCell>
        <mxCell id="spTVyyW4fHagzauWtHll-6" value="Add additional info?" style="rhombus;whiteSpace=wrap;html=1;fillColor=#fff2cc;strokeColor=#d6b656;" parent="1" vertex="1">
          <mxGeometry x="50" y="-500" width="120" height="80" as="geometry" />
        </mxCell>
        <mxCell id="spTVyyW4fHagzauWtHll-15" style="edgeStyle=orthogonalEdgeStyle;rounded=0;orthogonalLoop=1;jettySize=auto;html=1;entryX=0.5;entryY=1;entryDx=0;entryDy=0;" parent="1" source="spTVyyW4fHagzauWtHll-8" edge="1" target="spTVyyW4fHagzauWtHll-10">
          <mxGeometry relative="1" as="geometry">
            <mxPoint x="280" y="-420" as="targetPoint" />
            <Array as="points">
              <mxPoint x="290" y="-350" />
            </Array>
          </mxGeometry>
        </mxCell>
        <mxCell id="spTVyyW4fHagzauWtHll-8" value="Provide email or phone number" style="rounded=1;whiteSpace=wrap;html=1;fillColor=#dae8fc;strokeColor=#6c8ebf;" parent="1" vertex="1">
          <mxGeometry x="50" y="-380" width="120" height="60" as="geometry" />
        </mxCell>
        <mxCell id="spTVyyW4fHagzauWtHll-13" value="" style="edgeStyle=orthogonalEdgeStyle;rounded=0;orthogonalLoop=1;jettySize=auto;html=1;" parent="1" source="spTVyyW4fHagzauWtHll-10" target="spTVyyW4fHagzauWtHll-12" edge="1">
          <mxGeometry relative="1" as="geometry" />
        </mxCell>
        <mxCell id="spTVyyW4fHagzauWtHll-10" value="Experience and education" style="rounded=1;whiteSpace=wrap;html=1;fillColor=#dae8fc;strokeColor=#6c8ebf;" parent="1" vertex="1">
          <mxGeometry x="230" y="-490" width="120" height="60" as="geometry" />
        </mxCell>
        <mxCell id="spTVyyW4fHagzauWtHll-17" value="" style="edgeStyle=orthogonalEdgeStyle;rounded=0;orthogonalLoop=1;jettySize=auto;html=1;entryX=1;entryY=0.5;entryDx=0;entryDy=0;" parent="1" source="spTVyyW4fHagzauWtHll-12" target="spTVyyW4fHagzauWtHll-18" edge="1">
          <mxGeometry relative="1" as="geometry">
            <mxPoint x="590" y="-460" as="targetPoint" />
            <Array as="points">
              <mxPoint x="580" y="-460" />
              <mxPoint x="580" y="-340" />
            </Array>
          </mxGeometry>
        </mxCell>
        <mxCell id="spTVyyW4fHagzauWtHll-19" value="" style="edgeStyle=orthogonalEdgeStyle;rounded=0;orthogonalLoop=1;jettySize=auto;html=1;" parent="1" source="spTVyyW4fHagzauWtHll-12" target="spTVyyW4fHagzauWtHll-18" edge="1">
          <mxGeometry relative="1" as="geometry" />
        </mxCell>
        <mxCell id="spTVyyW4fHagzauWtHll-12" value="Profile summary?" style="rhombus;whiteSpace=wrap;html=1;fillColor=#fff2cc;strokeColor=#d6b656;" parent="1" vertex="1">
          <mxGeometry x="410" y="-500" width="120" height="80" as="geometry" />
        </mxCell>
        <mxCell id="spTVyyW4fHagzauWtHll-21" value="" style="edgeStyle=orthogonalEdgeStyle;rounded=0;orthogonalLoop=1;jettySize=auto;html=1;" parent="1" source="spTVyyW4fHagzauWtHll-18" target="spTVyyW4fHagzauWtHll-20" edge="1">
          <mxGeometry relative="1" as="geometry" />
        </mxCell>
        <mxCell id="spTVyyW4fHagzauWtHll-18" value="Add profile summary" style="rounded=1;whiteSpace=wrap;html=1;fillColor=#dae8fc;strokeColor=#6c8ebf;" parent="1" vertex="1">
          <mxGeometry x="410" y="-370" width="120" height="60" as="geometry" />
        </mxCell>
        <mxCell id="spTVyyW4fHagzauWtHll-23" value="" style="edgeStyle=orthogonalEdgeStyle;rounded=0;orthogonalLoop=1;jettySize=auto;html=1;" parent="1" source="spTVyyW4fHagzauWtHll-20" target="spTVyyW4fHagzauWtHll-22" edge="1">
          <mxGeometry relative="1" as="geometry" />
        </mxCell>
        <mxCell id="spTVyyW4fHagzauWtHll-20" value="Skills and endorsementts" style="whiteSpace=wrap;html=1;rounded=1;fillColor=#dae8fc;strokeColor=#6c8ebf;" parent="1" vertex="1">
          <mxGeometry x="410" y="-260" width="120" height="60" as="geometry" />
        </mxCell>
        <mxCell id="spTVyyW4fHagzauWtHll-27" value="" style="edgeStyle=orthogonalEdgeStyle;rounded=0;orthogonalLoop=1;jettySize=auto;html=1;entryX=1;entryY=0.5;entryDx=0;entryDy=0;" parent="1" source="spTVyyW4fHagzauWtHll-22" target="spTVyyW4fHagzauWtHll-24" edge="1">
          <mxGeometry relative="1" as="geometry">
            <mxPoint x="580" y="-110" as="targetPoint" />
            <Array as="points">
              <mxPoint x="610" y="-110" />
              <mxPoint x="610" y="130" />
            </Array>
          </mxGeometry>
        </mxCell>
        <mxCell id="I-zVNKlMBQ6yUOZm1XHd-2" value="" style="edgeStyle=orthogonalEdgeStyle;rounded=0;orthogonalLoop=1;jettySize=auto;html=1;" edge="1" parent="1" source="spTVyyW4fHagzauWtHll-22" target="I-zVNKlMBQ6yUOZm1XHd-1">
          <mxGeometry relative="1" as="geometry" />
        </mxCell>
        <mxCell id="spTVyyW4fHagzauWtHll-22" value="Endorsement?" style="rhombus;whiteSpace=wrap;html=1;fillColor=#fff2cc;strokeColor=#d6b656;" parent="1" vertex="1">
          <mxGeometry x="410" y="-150" width="120" height="80" as="geometry" />
        </mxCell>
        <mxCell id="I-zVNKlMBQ6yUOZm1XHd-6" style="edgeStyle=orthogonalEdgeStyle;rounded=0;orthogonalLoop=1;jettySize=auto;html=1;entryX=0.5;entryY=0;entryDx=0;entryDy=0;" edge="1" parent="1" source="spTVyyW4fHagzauWtHll-24" target="spTVyyW4fHagzauWtHll-29">
          <mxGeometry relative="1" as="geometry" />
        </mxCell>
        <mxCell id="spTVyyW4fHagzauWtHll-24" value="Recommendations" style="whiteSpace=wrap;html=1;rounded=1;fillColor=#dae8fc;strokeColor=#6c8ebf;" parent="1" vertex="1">
          <mxGeometry x="410" y="100" width="120" height="60" as="geometry" />
        </mxCell>
        <mxCell id="spTVyyW4fHagzauWtHll-32" value="" style="edgeStyle=orthogonalEdgeStyle;rounded=0;orthogonalLoop=1;jettySize=auto;html=1;" parent="1" source="spTVyyW4fHagzauWtHll-29" target="spTVyyW4fHagzauWtHll-31" edge="1">
          <mxGeometry relative="1" as="geometry" />
        </mxCell>
        <mxCell id="spTVyyW4fHagzauWtHll-29" value="Certifications, voluntary experience" style="whiteSpace=wrap;html=1;rounded=1;fillColor=#dae8fc;strokeColor=#6c8ebf;" parent="1" vertex="1">
          <mxGeometry x="410" y="240" width="120" height="60" as="geometry" />
        </mxCell>
        <mxCell id="spTVyyW4fHagzauWtHll-33" style="edgeStyle=orthogonalEdgeStyle;rounded=0;orthogonalLoop=1;jettySize=auto;html=1;" parent="1" source="spTVyyW4fHagzauWtHll-31" edge="1">
          <mxGeometry relative="1" as="geometry">
            <Array as="points">
              <mxPoint x="630" y="390" />
              <mxPoint x="630" y="390" />
            </Array>
            <mxPoint x="630" y="390" as="targetPoint" />
          </mxGeometry>
        </mxCell>
        <mxCell id="spTVyyW4fHagzauWtHll-35" value="" style="edgeStyle=orthogonalEdgeStyle;rounded=0;orthogonalLoop=1;jettySize=auto;html=1;" parent="1" source="spTVyyW4fHagzauWtHll-31" target="spTVyyW4fHagzauWtHll-34" edge="1">
          <mxGeometry relative="1" as="geometry" />
        </mxCell>
        <mxCell id="spTVyyW4fHagzauWtHll-31" value="All sections completed?" style="rhombus;whiteSpace=wrap;html=1;fillColor=#fff2cc;strokeColor=#d6b656;" parent="1" vertex="1">
          <mxGeometry x="410" y="350" width="120" height="80" as="geometry" />
        </mxCell>
        <mxCell id="spTVyyW4fHagzauWtHll-38" value="" style="edgeStyle=orthogonalEdgeStyle;rounded=0;orthogonalLoop=1;jettySize=auto;html=1;" parent="1" source="spTVyyW4fHagzauWtHll-34" target="spTVyyW4fHagzauWtHll-37" edge="1">
          <mxGeometry relative="1" as="geometry" />
        </mxCell>
        <mxCell id="spTVyyW4fHagzauWtHll-34" value="Profile completed" style="whiteSpace=wrap;html=1;rounded=1;fillColor=#dae8fc;strokeColor=#6c8ebf;" parent="1" vertex="1">
          <mxGeometry x="410" y="480" width="120" height="60" as="geometry" />
        </mxCell>
        <mxCell id="spTVyyW4fHagzauWtHll-37" value="End" style="ellipse;whiteSpace=wrap;html=1;fillColor=#f8cecc;strokeColor=#b85450;" parent="1" vertex="1">
          <mxGeometry x="410" y="590" width="120" height="80" as="geometry" />
        </mxCell>
        <mxCell id="spTVyyW4fHagzauWtHll-44" value="" style="edgeStyle=orthogonalEdgeStyle;rounded=0;orthogonalLoop=1;jettySize=auto;html=1;entryX=0.5;entryY=0;entryDx=0;entryDy=0;" parent="1" source="spTVyyW4fHagzauWtHll-39" target="spTVyyW4fHagzauWtHll-43" edge="1">
          <mxGeometry relative="1" as="geometry">
            <mxPoint x="110" y="-740" as="targetPoint" />
          </mxGeometry>
        </mxCell>
        <mxCell id="spTVyyW4fHagzauWtHll-39" value="Add picture" style="whiteSpace=wrap;html=1;rounded=1;fillColor=#dae8fc;strokeColor=#6c8ebf;" parent="1" vertex="1">
          <mxGeometry x="50" y="-840" width="120" height="60" as="geometry" />
        </mxCell>
        <mxCell id="spTVyyW4fHagzauWtHll-46" value="" style="edgeStyle=orthogonalEdgeStyle;rounded=0;orthogonalLoop=1;jettySize=auto;html=1;" parent="1" source="spTVyyW4fHagzauWtHll-43" target="spTVyyW4fHagzauWtHll-45" edge="1">
          <mxGeometry relative="1" as="geometry" />
        </mxCell>
        <mxCell id="spTVyyW4fHagzauWtHll-43" value="Add headline" style="rounded=1;whiteSpace=wrap;html=1;fillColor=#dae8fc;strokeColor=#6c8ebf;" parent="1" vertex="1">
          <mxGeometry x="50" y="-730" width="120" height="60" as="geometry" />
        </mxCell>
        <mxCell id="spTVyyW4fHagzauWtHll-47" value="" style="edgeStyle=orthogonalEdgeStyle;rounded=0;orthogonalLoop=1;jettySize=auto;html=1;" parent="1" source="spTVyyW4fHagzauWtHll-45" target="spTVyyW4fHagzauWtHll-6" edge="1">
          <mxGeometry relative="1" as="geometry" />
        </mxCell>
        <mxCell id="spTVyyW4fHagzauWtHll-45" value="Add location" style="rounded=1;whiteSpace=wrap;html=1;fillColor=#dae8fc;strokeColor=#6c8ebf;" parent="1" vertex="1">
          <mxGeometry x="50" y="-620" width="120" height="60" as="geometry" />
        </mxCell>
        <mxCell id="spTVyyW4fHagzauWtHll-48" value="1" style="text;html=1;align=center;verticalAlign=middle;resizable=0;points=[];autosize=1;strokeColor=none;fillColor=none;" parent="1" vertex="1">
          <mxGeometry x="80" y="-990" width="30" height="30" as="geometry" />
        </mxCell>
        <mxCell id="spTVyyW4fHagzauWtHll-49" value="2" style="text;html=1;align=center;verticalAlign=middle;resizable=0;points=[];autosize=1;strokeColor=none;fillColor=none;" parent="1" vertex="1">
          <mxGeometry x="80" y="-880" width="30" height="30" as="geometry" />
        </mxCell>
        <mxCell id="spTVyyW4fHagzauWtHll-50" value="3" style="text;html=1;align=center;verticalAlign=middle;resizable=0;points=[];autosize=1;strokeColor=none;fillColor=none;" parent="1" vertex="1">
          <mxGeometry x="80" y="-772" width="30" height="30" as="geometry" />
        </mxCell>
        <mxCell id="spTVyyW4fHagzauWtHll-51" value="4" style="text;html=1;align=center;verticalAlign=middle;resizable=0;points=[];autosize=1;strokeColor=none;fillColor=none;" parent="1" vertex="1">
          <mxGeometry x="80" y="-660" width="30" height="30" as="geometry" />
        </mxCell>
        <mxCell id="spTVyyW4fHagzauWtHll-52" value="5" style="text;html=1;align=center;verticalAlign=middle;resizable=0;points=[];autosize=1;strokeColor=none;fillColor=none;" parent="1" vertex="1">
          <mxGeometry x="80" y="-542" width="30" height="30" as="geometry" />
        </mxCell>
        <mxCell id="spTVyyW4fHagzauWtHll-53" value="6" style="text;html=1;align=center;verticalAlign=middle;resizable=0;points=[];autosize=1;strokeColor=none;fillColor=none;" parent="1" vertex="1">
          <mxGeometry x="180" y="-490" width="30" height="30" as="geometry" />
        </mxCell>
        <mxCell id="spTVyyW4fHagzauWtHll-54" value="7" style="text;html=1;align=center;verticalAlign=middle;resizable=0;points=[];autosize=1;strokeColor=none;fillColor=none;" parent="1" vertex="1">
          <mxGeometry x="110" y="-420" width="30" height="30" as="geometry" />
        </mxCell>
        <mxCell id="spTVyyW4fHagzauWtHll-55" value="9" style="text;html=1;align=center;verticalAlign=middle;resizable=0;points=[];autosize=1;strokeColor=none;fillColor=none;" parent="1" vertex="1">
          <mxGeometry x="360" y="-490" width="30" height="30" as="geometry" />
        </mxCell>
        <mxCell id="spTVyyW4fHagzauWtHll-56" value="8" style="text;html=1;align=center;verticalAlign=middle;resizable=0;points=[];autosize=1;strokeColor=none;fillColor=none;" parent="1" vertex="1">
          <mxGeometry x="250" y="-380" width="30" height="30" as="geometry" />
        </mxCell>
        <mxCell id="spTVyyW4fHagzauWtHll-57" value="10" style="text;html=1;align=center;verticalAlign=middle;resizable=0;points=[];autosize=1;strokeColor=none;fillColor=none;" parent="1" vertex="1">
          <mxGeometry x="530" y="-490" width="40" height="30" as="geometry" />
        </mxCell>
        <mxCell id="spTVyyW4fHagzauWtHll-58" value="11" style="text;html=1;align=center;verticalAlign=middle;resizable=0;points=[];autosize=1;strokeColor=none;fillColor=none;" parent="1" vertex="1">
          <mxGeometry x="470" y="-410" width="40" height="30" as="geometry" />
        </mxCell>
        <mxCell id="spTVyyW4fHagzauWtHll-59" value="12" style="text;html=1;align=center;verticalAlign=middle;resizable=0;points=[];autosize=1;strokeColor=none;fillColor=none;" parent="1" vertex="1">
          <mxGeometry x="470" y="-302" width="40" height="30" as="geometry" />
        </mxCell>
        <mxCell id="spTVyyW4fHagzauWtHll-60" value="13" style="text;html=1;align=center;verticalAlign=middle;resizable=0;points=[];autosize=1;strokeColor=none;fillColor=none;" parent="1" vertex="1">
          <mxGeometry x="470" y="-190" width="40" height="30" as="geometry" />
        </mxCell>
        <mxCell id="spTVyyW4fHagzauWtHll-61" value="14" style="text;html=1;align=center;verticalAlign=middle;resizable=0;points=[];autosize=1;strokeColor=none;fillColor=none;" parent="1" vertex="1">
          <mxGeometry x="530" y="-140" width="40" height="30" as="geometry" />
        </mxCell>
        <mxCell id="spTVyyW4fHagzauWtHll-62" value="15" style="text;html=1;align=center;verticalAlign=middle;resizable=0;points=[];autosize=1;strokeColor=none;fillColor=none;" parent="1" vertex="1">
          <mxGeometry x="470" y="-70" width="40" height="30" as="geometry" />
        </mxCell>
        <mxCell id="spTVyyW4fHagzauWtHll-63" value="16" style="text;html=1;align=center;verticalAlign=middle;resizable=0;points=[];autosize=1;strokeColor=none;fillColor=none;" parent="1" vertex="1">
          <mxGeometry x="470" y="50" width="40" height="30" as="geometry" />
        </mxCell>
        <mxCell id="spTVyyW4fHagzauWtHll-64" value="17" style="text;html=1;align=center;verticalAlign=middle;resizable=0;points=[];autosize=1;strokeColor=none;fillColor=none;" parent="1" vertex="1">
          <mxGeometry x="470" y="190" width="40" height="30" as="geometry" />
        </mxCell>
        <mxCell id="spTVyyW4fHagzauWtHll-65" value="18" style="text;html=1;align=center;verticalAlign=middle;resizable=0;points=[];autosize=1;strokeColor=none;fillColor=none;" parent="1" vertex="1">
          <mxGeometry x="470" y="310" width="40" height="30" as="geometry" />
        </mxCell>
        <mxCell id="spTVyyW4fHagzauWtHll-66" value="19" style="text;html=1;align=center;verticalAlign=middle;resizable=0;points=[];autosize=1;strokeColor=none;fillColor=none;" parent="1" vertex="1">
          <mxGeometry x="550" y="358" width="40" height="30" as="geometry" />
        </mxCell>
        <mxCell id="spTVyyW4fHagzauWtHll-67" value="20" style="text;html=1;align=center;verticalAlign=middle;resizable=0;points=[];autosize=1;strokeColor=none;fillColor=none;" parent="1" vertex="1">
          <mxGeometry x="480" y="440" width="40" height="30" as="geometry" />
        </mxCell>
        <mxCell id="spTVyyW4fHagzauWtHll-68" value="21" style="text;html=1;align=center;verticalAlign=middle;resizable=0;points=[];autosize=1;strokeColor=none;fillColor=none;" parent="1" vertex="1">
          <mxGeometry x="480" y="550" width="40" height="30" as="geometry" />
        </mxCell>
        <mxCell id="spTVyyW4fHagzauWtHll-69" value="Yes" style="text;html=1;align=center;verticalAlign=middle;resizable=0;points=[];autosize=1;strokeColor=none;fillColor=none;" parent="1" vertex="1">
          <mxGeometry x="70" y="-422" width="40" height="30" as="geometry" />
        </mxCell>
        <mxCell id="spTVyyW4fHagzauWtHll-70" value="No" style="text;html=1;align=center;verticalAlign=middle;resizable=0;points=[];autosize=1;strokeColor=none;fillColor=none;" parent="1" vertex="1">
          <mxGeometry x="175" y="-460" width="40" height="30" as="geometry" />
        </mxCell>
        <mxCell id="spTVyyW4fHagzauWtHll-71" value="Yes" style="text;html=1;align=center;verticalAlign=middle;resizable=0;points=[];autosize=1;strokeColor=none;fillColor=none;" parent="1" vertex="1">
          <mxGeometry x="430" y="-410" width="40" height="30" as="geometry" />
        </mxCell>
        <mxCell id="spTVyyW4fHagzauWtHll-72" value="No" style="text;html=1;align=center;verticalAlign=middle;resizable=0;points=[];autosize=1;strokeColor=none;fillColor=none;" parent="1" vertex="1">
          <mxGeometry x="530" y="-460" width="40" height="30" as="geometry" />
        </mxCell>
        <mxCell id="spTVyyW4fHagzauWtHll-73" value="Yes" style="text;html=1;align=center;verticalAlign=middle;resizable=0;points=[];autosize=1;strokeColor=none;fillColor=none;" parent="1" vertex="1">
          <mxGeometry x="410" y="-70" width="40" height="30" as="geometry" />
        </mxCell>
        <mxCell id="spTVyyW4fHagzauWtHll-74" value="No" style="text;html=1;align=center;verticalAlign=middle;resizable=0;points=[];autosize=1;strokeColor=none;fillColor=none;" parent="1" vertex="1">
          <mxGeometry x="530" y="-100" width="40" height="30" as="geometry" />
        </mxCell>
        <mxCell id="spTVyyW4fHagzauWtHll-75" value="Yes" style="text;html=1;align=center;verticalAlign=middle;resizable=0;points=[];autosize=1;strokeColor=none;fillColor=none;" parent="1" vertex="1">
          <mxGeometry x="430" y="440" width="40" height="30" as="geometry" />
        </mxCell>
        <mxCell id="spTVyyW4fHagzauWtHll-76" value="No" style="text;html=1;align=center;verticalAlign=middle;resizable=0;points=[];autosize=1;strokeColor=none;fillColor=none;" parent="1" vertex="1">
          <mxGeometry x="540" y="388" width="40" height="30" as="geometry" />
        </mxCell>
        <mxCell id="I-zVNKlMBQ6yUOZm1XHd-5" style="edgeStyle=orthogonalEdgeStyle;rounded=0;orthogonalLoop=1;jettySize=auto;html=1;entryX=0.5;entryY=0;entryDx=0;entryDy=0;" edge="1" parent="1" source="I-zVNKlMBQ6yUOZm1XHd-1" target="spTVyyW4fHagzauWtHll-24">
          <mxGeometry relative="1" as="geometry" />
        </mxCell>
        <mxCell id="I-zVNKlMBQ6yUOZm1XHd-1" value="Get Endorsement" style="whiteSpace=wrap;html=1;rounded=1;fillColor=#dae8fc;strokeColor=#6c8ebf;" vertex="1" parent="1">
          <mxGeometry x="410" y="-30" width="120" height="60" as="geometry" />
        </mxCell>
        <mxCell id="I-zVNKlMBQ6yUOZm1XHd-8" value="Complete mandatory sections" style="whiteSpace=wrap;html=1;rounded=1;fillColor=#dae8fc;strokeColor=#6c8ebf;" vertex="1" parent="1">
          <mxGeometry x="630" y="358" width="120" height="60" as="geometry" />
        </mxCell>
      </root>
    </mxGraphModel>
  </diagram>
</mxfile>
